<svg xmlns="http://www.w3.org/2000/svg" xmlns:xlink="http://www.w3.org/1999/xlink" width="500" zoomAndPan="magnify" viewBox="0 0 375 374.999991" height="500" preserveAspectRatio="xMidYMid meet" version="1.0"><defs><g/><clipPath id="061d969ee7"><path d="M 48.179688 172.328125 L 307.191406 172.328125 L 307.191406 202.378906 L 48.179688 202.378906 Z M 48.179688 172.328125 " clip-rule="nonzero"/></clipPath></defs><g fill="#000000" fill-opacity="1"><g transform="translate(150.941497, 242.722733)"><g><path d="M 112.203125 -112.203125 L 112.203125 -114.9375 L 4.625 -114.9375 L 4.625 -112.203125 L 17.28125 -112.203125 L 57.125 1.703125 L 59.359375 1.703125 L 78 -51.484375 L 97.15625 1.703125 L 99.375 1.703125 L 139.40625 -112.203125 L 151.203125 -112.203125 L 151.203125 -114.9375 L 121.609375 -114.9375 L 121.609375 -112.203125 L 136.328125 -112.203125 L 104.6875 -22.40625 L 87.578125 -71.84375 L 101.765625 -112.203125 Z M 98.6875 -112.203125 L 86.03125 -76.28125 L 73.375 -112.203125 Z M 64.828125 -22.75 L 33.53125 -112.203125 L 57.125 -112.203125 L 76.453125 -56.109375 Z M 64.828125 -22.75 "/></g></g></g><g fill="#000000" fill-opacity="1"><g transform="translate(90.615212, 245.249984)"><g><path d="M 54.203125 -113.984375 L 54.203125 -116.765625 L 7.46875 -116.765625 L 7.46875 -113.984375 L 22.40625 -113.984375 L 22.40625 -2.78125 L 7.46875 -2.78125 L 7.46875 0 L 54.203125 0 L 54.203125 -2.78125 L 39.265625 -2.78125 L 39.265625 -113.984375 Z M 54.203125 -113.984375 "/></g></g></g><g clip-path="url(#061d969ee7)"><path fill="#fafafa" d="M 48.179688 172.328125 L 307.25 172.328125 L 307.25 202.378906 L 48.179688 202.378906 Z M 48.179688 172.328125 " fill-opacity="1" fill-rule="nonzero"/></g><g fill="#000000" fill-opacity="1"><g transform="translate(154.486146, 244.100416)"><g><path d="M 4.40625 -2.6875 C 4.695312 -2.59375 4.925781 -2.4375 5.09375 -2.21875 C 5.257812 -2 5.34375 -1.726562 5.34375 -1.40625 C 5.34375 -0.957031 5.164062 -0.609375 4.8125 -0.359375 C 4.46875 -0.117188 3.957031 0 3.28125 0 L 0.609375 0 L 0.609375 -5.15625 L 3.140625 -5.15625 C 3.765625 -5.15625 4.242188 -5.035156 4.578125 -4.796875 C 4.921875 -4.554688 5.09375 -4.226562 5.09375 -3.8125 C 5.09375 -3.5625 5.03125 -3.335938 4.90625 -3.140625 C 4.789062 -2.953125 4.625 -2.800781 4.40625 -2.6875 Z M 1.796875 -4.265625 L 1.796875 -3.046875 L 2.984375 -3.046875 C 3.273438 -3.046875 3.5 -3.097656 3.65625 -3.203125 C 3.8125 -3.304688 3.890625 -3.457031 3.890625 -3.65625 C 3.890625 -3.851562 3.8125 -4.003906 3.65625 -4.109375 C 3.5 -4.210938 3.273438 -4.265625 2.984375 -4.265625 Z M 3.1875 -0.90625 C 3.507812 -0.90625 3.75 -0.953125 3.90625 -1.046875 C 4.0625 -1.148438 4.140625 -1.3125 4.140625 -1.53125 C 4.140625 -1.957031 3.820312 -2.171875 3.1875 -2.171875 L 1.796875 -2.171875 L 1.796875 -0.90625 Z M 3.1875 -0.90625 "/></g></g></g><g fill="#000000" fill-opacity="1"><g transform="translate(162.684331, 244.100416)"><g><path d="M 3.09375 -1.828125 L 3.09375 0 L 1.890625 0 L 1.890625 -1.84375 L -0.109375 -5.15625 L 1.171875 -5.15625 L 2.546875 -2.875 L 3.921875 -5.15625 L 5.09375 -5.15625 Z M 3.09375 -1.828125 "/></g></g></g><g fill="#000000" fill-opacity="1"><g transform="translate(170.225782, 244.100416)"><g/></g></g><g fill="#000000" fill-opacity="1"><g transform="translate(174.867296, 244.100416)"><g><path d="M 5.578125 -5.15625 L 3.34375 0 L 2.15625 0 L -0.0625 -5.15625 L 1.21875 -5.15625 L 2.796875 -1.46875 L 4.390625 -5.15625 Z M 5.578125 -5.15625 "/></g></g></g><g fill="#000000" fill-opacity="1"><g transform="translate(182.925277, 244.100416)"><g><path d="M 2.5 -2.03125 L 1.796875 -1.3125 L 1.796875 0 L 0.609375 0 L 0.609375 -5.15625 L 1.796875 -5.15625 L 1.796875 -2.75 L 4.078125 -5.15625 L 5.40625 -5.15625 L 3.28125 -2.859375 L 5.53125 0 L 4.140625 0 Z M 2.5 -2.03125 "/></g></g></g><g fill="#000000" fill-opacity="1"><g transform="translate(114.095099, 192.326536)"><g><path d="M 1.109375 -9.421875 L 3.296875 -9.421875 L 3.296875 0 L 1.109375 0 Z M 1.109375 -9.421875 "/></g></g></g><g fill="#000000" fill-opacity="1"><g transform="translate(123.158634, 192.326536)"><g><path d="M 9.75 -9.421875 L 9.75 0 L 7.96875 0 L 3.265625 -5.71875 L 3.265625 0 L 1.109375 0 L 1.109375 -9.421875 L 2.921875 -9.421875 L 7.59375 -3.703125 L 7.59375 -9.421875 Z M 9.75 -9.421875 "/></g></g></g><g fill="#000000" fill-opacity="1"><g transform="translate(138.676729, 192.326536)"><g><path d="M 10.171875 -9.421875 L 6.09375 0 L 3.9375 0 L -0.125 -9.421875 L 2.234375 -9.421875 L 5.09375 -2.6875 L 8 -9.421875 Z M 10.171875 -9.421875 "/></g></g></g><g fill="#000000" fill-opacity="1"><g transform="translate(153.361103, 192.326536)"><g><path d="M 8.40625 -1.75 L 8.40625 0 L 1.109375 0 L 1.109375 -9.421875 L 8.234375 -9.421875 L 8.234375 -7.671875 L 3.28125 -7.671875 L 3.28125 -5.625 L 7.65625 -5.625 L 7.65625 -3.921875 L 3.28125 -3.921875 L 3.28125 -1.75 Z M 8.40625 -1.75 "/></g></g></g><g fill="#000000" fill-opacity="1"><g transform="translate(167.036951, 192.326536)"><g><path d="M 4.203125 0.15625 C 3.460938 0.15625 2.742188 0.0546875 2.046875 -0.140625 C 1.359375 -0.335938 0.800781 -0.597656 0.375 -0.921875 L 1.109375 -2.5625 C 1.515625 -2.269531 1.992188 -2.035156 2.546875 -1.859375 C 3.109375 -1.679688 3.664062 -1.59375 4.21875 -1.59375 C 4.84375 -1.59375 5.300781 -1.679688 5.59375 -1.859375 C 5.894531 -2.046875 6.046875 -2.289062 6.046875 -2.59375 C 6.046875 -2.820312 5.957031 -3.007812 5.78125 -3.15625 C 5.601562 -3.300781 5.375 -3.414062 5.09375 -3.5 C 4.820312 -3.59375 4.457031 -3.695312 4 -3.8125 C 3.28125 -3.976562 2.691406 -4.144531 2.234375 -4.3125 C 1.773438 -4.488281 1.378906 -4.765625 1.046875 -5.140625 C 0.722656 -5.515625 0.5625 -6.015625 0.5625 -6.640625 C 0.5625 -7.191406 0.707031 -7.6875 1 -8.125 C 1.300781 -8.570312 1.75 -8.925781 2.34375 -9.1875 C 2.9375 -9.445312 3.664062 -9.578125 4.53125 -9.578125 C 5.132812 -9.578125 5.722656 -9.503906 6.296875 -9.359375 C 6.867188 -9.210938 7.367188 -9.007812 7.796875 -8.75 L 7.125 -7.09375 C 6.257812 -7.582031 5.390625 -7.828125 4.515625 -7.828125 C 3.910156 -7.828125 3.460938 -7.726562 3.171875 -7.53125 C 2.878906 -7.332031 2.734375 -7.070312 2.734375 -6.75 C 2.734375 -6.425781 2.898438 -6.1875 3.234375 -6.03125 C 3.566406 -5.875 4.082031 -5.71875 4.78125 -5.5625 C 5.5 -5.394531 6.082031 -5.222656 6.53125 -5.046875 C 6.988281 -4.878906 7.378906 -4.613281 7.703125 -4.25 C 8.035156 -3.882812 8.203125 -3.390625 8.203125 -2.765625 C 8.203125 -2.222656 8.050781 -1.726562 7.75 -1.28125 C 7.457031 -0.84375 7.007812 -0.492188 6.40625 -0.234375 C 5.800781 0.0234375 5.066406 0.15625 4.203125 0.15625 Z M 4.203125 0.15625 "/></g></g></g><g fill="#000000" fill-opacity="1"><g transform="translate(180.269043, 192.326536)"><g><path d="M 3.0625 -7.640625 L 0.046875 -7.640625 L 0.046875 -9.421875 L 8.265625 -9.421875 L 8.265625 -7.640625 L 5.25 -7.640625 L 5.25 0 L 3.0625 0 Z M 3.0625 -7.640625 "/></g></g></g><g fill="#000000" fill-opacity="1"><g transform="translate(193.232198, 192.326536)"><g><path d="M 7.3125 -2.015625 L 2.953125 -2.015625 L 2.109375 0 L -0.125 0 L 4.078125 -9.421875 L 6.234375 -9.421875 L 10.4375 0 L 8.15625 0 Z M 6.625 -3.671875 L 5.140625 -7.28125 L 3.640625 -3.671875 Z M 6.625 -3.671875 "/></g></g></g><g fill="#000000" fill-opacity="1"><g transform="translate(208.185507, 192.326536)"><g/></g></g><g fill="#000000" fill-opacity="1"><g transform="translate(216.643919, 192.326536)"><g><path d="M 15.34375 -9.421875 L 12.265625 0 L 9.921875 0 L 7.859375 -6.375 L 5.71875 0 L 3.390625 0 L 0.296875 -9.421875 L 2.5625 -9.421875 L 4.6875 -2.796875 L 6.90625 -9.421875 L 8.921875 -9.421875 L 11.078125 -2.75 L 13.265625 -9.421875 Z M 15.34375 -9.421875 "/></g></g></g><g fill="#000000" fill-opacity="1"><g transform="translate(236.935691, 192.326536)"><g><path d="M 1.109375 -9.421875 L 3.296875 -9.421875 L 3.296875 0 L 1.109375 0 Z M 1.109375 -9.421875 "/></g></g></g><g fill="#000000" fill-opacity="1"><g transform="translate(245.999223, 192.326536)"><g><path d="M 4.203125 0.15625 C 3.460938 0.15625 2.742188 0.0546875 2.046875 -0.140625 C 1.359375 -0.335938 0.800781 -0.597656 0.375 -0.921875 L 1.109375 -2.5625 C 1.515625 -2.269531 1.992188 -2.035156 2.546875 -1.859375 C 3.109375 -1.679688 3.664062 -1.59375 4.21875 -1.59375 C 4.84375 -1.59375 5.300781 -1.679688 5.59375 -1.859375 C 5.894531 -2.046875 6.046875 -2.289062 6.046875 -2.59375 C 6.046875 -2.820312 5.957031 -3.007812 5.78125 -3.15625 C 5.601562 -3.300781 5.375 -3.414062 5.09375 -3.5 C 4.820312 -3.59375 4.457031 -3.695312 4 -3.8125 C 3.28125 -3.976562 2.691406 -4.144531 2.234375 -4.3125 C 1.773438 -4.488281 1.378906 -4.765625 1.046875 -5.140625 C 0.722656 -5.515625 0.5625 -6.015625 0.5625 -6.640625 C 0.5625 -7.191406 0.707031 -7.6875 1 -8.125 C 1.300781 -8.570312 1.75 -8.925781 2.34375 -9.1875 C 2.9375 -9.445312 3.664062 -9.578125 4.53125 -9.578125 C 5.132812 -9.578125 5.722656 -9.503906 6.296875 -9.359375 C 6.867188 -9.210938 7.367188 -9.007812 7.796875 -8.75 L 7.125 -7.09375 C 6.257812 -7.582031 5.390625 -7.828125 4.515625 -7.828125 C 3.910156 -7.828125 3.460938 -7.726562 3.171875 -7.53125 C 2.878906 -7.332031 2.734375 -7.070312 2.734375 -6.75 C 2.734375 -6.425781 2.898438 -6.1875 3.234375 -6.03125 C 3.566406 -5.875 4.082031 -5.71875 4.78125 -5.5625 C 5.5 -5.394531 6.082031 -5.222656 6.53125 -5.046875 C 6.988281 -4.878906 7.378906 -4.613281 7.703125 -4.25 C 8.035156 -3.882812 8.203125 -3.390625 8.203125 -2.765625 C 8.203125 -2.222656 8.050781 -1.726562 7.75 -1.28125 C 7.457031 -0.84375 7.007812 -0.492188 6.40625 -0.234375 C 5.800781 0.0234375 5.066406 0.15625 4.203125 0.15625 Z M 4.203125 0.15625 "/></g></g></g><g fill="#000000" fill-opacity="1"><g transform="translate(259.231316, 192.326536)"><g><path d="M 8.40625 -1.75 L 8.40625 0 L 1.109375 0 L 1.109375 -9.421875 L 8.234375 -9.421875 L 8.234375 -7.671875 L 3.28125 -7.671875 L 3.28125 -5.625 L 7.65625 -5.625 L 7.65625 -3.921875 L 3.28125 -3.921875 L 3.28125 -1.75 Z M 8.40625 -1.75 "/></g></g></g></svg>